<svg xmlns="http://www.w3.org/2000/svg" xmlns:xlink="http://www.w3.org/1999/xlink" viewBox="0 0 24 30" version="1.1" x="0px" y="0px"><title>Error, failur, internet, oops, page, problem</title><desc>Created with Sketch.</desc><g stroke="none" stroke-width="1" fill="none" fill-rule="evenodd"><g transform="translate(-228.000000, -36.000000)" fill="#000000" fill-rule="nonzero"><g transform="translate(228.000000, 36.000000)"><path d="M14.6832816,2.13049517 L23.4472136,19.6583592 C24.1881813,21.1402947 23.5875083,22.9423138 22.1055728,23.6832816 C21.6890065,23.8915647 21.2296673,24 20.763932,24 L3.23606798,24 C1.57921373,24 0.236067977,22.6568542 0.236067977,21 C0.236067977,20.5342647 0.344503253,20.0749255 0.552786405,19.6583592 L9.31671843,2.13049517 C10.0576862,0.648559676 11.8597053,0.0478866359 13.3416408,0.788854382 C13.922223,1.07914549 14.3929905,1.54991296 14.6832816,2.13049517 Z M11,8 L11,16 C11,16.5522847 11.4477153,17 12,17 C12.5522847,17 13,16.5522847 13,16 L13,8 C13,7.44771525 12.5522847,7 12,7 C11.4477153,7 11,7.44771525 11,8 Z M12,20 C12.5522847,20 13,19.5522847 13,19 C13,18.4477153 12.5522847,18 12,18 C11.4477153,18 11,18.4477153 11,19 C11,19.5522847 11.4477153,20 12,20 Z"/></g></g></g><text x="0" y="39" fill="#000000" font-size="5px" font-weight="bold" font-family="'Helvetica Neue', Helvetica, Arial-Unicode, Arial, Sans-serif">Created by Twenty Foo Studio</text><text x="0" y="44" fill="#000000" font-size="5px" font-weight="bold" font-family="'Helvetica Neue', Helvetica, Arial-Unicode, Arial, Sans-serif">from the Noun Project</text></svg>